<svg xmlns="http://www.w3.org/2000/svg" xmlns:xlink="http://www.w3.org/1999/xlink" width="2000" zoomAndPan="magnify" viewBox="0 0 1500 1499.999933" height="2000" preserveAspectRatio="xMidYMid meet" version="1.0"><defs><clipPath id="34a5b6c619"><path d="M 495.871094 517.25 L 1004.128906 517.25 L 1004.128906 665.546875 L 495.871094 665.546875 Z M 495.871094 517.25 " clip-rule="nonzero"/></clipPath><clipPath id="d08dc98bb0"><path d="M 0.871094 0.25 L 509 0.25 L 509 148.546875 L 0.871094 148.546875 Z M 0.871094 0.25 " clip-rule="nonzero"/></clipPath><clipPath id="3d27770cdd"><rect x="0" width="510" y="0" height="149"/></clipPath><clipPath id="299b1e9350"><path d="M 640.195312 723.214844 L 890.058594 723.214844 L 890.058594 792.292969 L 640.195312 792.292969 Z M 640.195312 723.214844 " clip-rule="nonzero"/></clipPath><clipPath id="953e29f593"><path d="M 0.195312 0.214844 L 250.058594 0.214844 L 250.058594 69.292969 L 0.195312 69.292969 Z M 0.195312 0.214844 " clip-rule="nonzero"/></clipPath><clipPath id="7521cd0660"><rect x="0" width="251" y="0" height="70"/></clipPath><clipPath id="e76b146941"><path d="M 427.574219 411.449219 L 1072.660156 411.449219 L 1072.660156 1088.5 L 427.574219 1088.5 Z M 427.574219 411.449219 " clip-rule="nonzero"/></clipPath><clipPath id="0f62d8b524"><path d="M 587 870.699219 L 917 870.699219 L 917 1025 L 587 1025 Z M 587 870.699219 " clip-rule="nonzero"/></clipPath><clipPath id="161788c5e0"><path d="M 594.324219 545.527344 L 640.074219 545.527344 L 640.074219 591.277344 L 594.324219 591.277344 Z M 594.324219 545.527344 " clip-rule="nonzero"/></clipPath><clipPath id="f4171611b1"><path d="M 895.910156 545.527344 L 941.660156 545.527344 L 941.660156 591.277344 L 895.910156 591.277344 Z M 895.910156 545.527344 " clip-rule="nonzero"/></clipPath></defs><rect x="-150" width="1800" fill="#ffffff" y="-149.999993" height="1799.99992" fill-opacity="1"/><rect x="-150" width="1800" fill="#ff751f" y="-149.999993" height="1799.99992" fill-opacity="1"/><g clip-path="url(#34a5b6c619)"><g transform="matrix(1, 0, 0, 1, 495, 517)"><g clip-path="url(#3d27770cdd)"><g clip-path="url(#d08dc98bb0)"><path fill="#000000" d="M 0.871094 0.25 L 508.898438 0.25 L 508.898438 148.546875 L 0.871094 148.546875 Z M 0.871094 0.25 " fill-opacity="1" fill-rule="nonzero"/></g></g></g></g><g clip-path="url(#299b1e9350)"><g transform="matrix(1, 0, 0, 1, 640, 723)"><g clip-path="url(#7521cd0660)"><g clip-path="url(#953e29f593)"><path fill="#000000" d="M 0.195312 0.214844 L 250.0625 0.214844 L 250.0625 69.292969 L 0.195312 69.292969 Z M 0.195312 0.214844 " fill-opacity="1" fill-rule="nonzero"/></g></g></g></g><path fill="#5d2808" d="M 1165.167969 411.484375 C 1160.460938 411.484375 1155.796875 411.679688 1151.191406 412.046875 C 1125.53125 414.085938 1115.167969 445.53125 1133.144531 463.949219 C 1163.613281 495.191406 1182.394531 537.902344 1182.394531 585.015625 C 1182.394531 632.109375 1163.640625 674.792969 1133.191406 706.023438 C 1115.039062 724.648438 1125.890625 756.070312 1151.824219 758.039062 C 1161.859375 758.804688 1172.140625 758.710938 1182.605469 757.699219 C 1262.359375 749.964844 1327.746094 686.269531 1337.382812 606.738281 C 1350.167969 501.125 1268.207031 411.484375 1165.167969 411.484375 " fill-opacity="1" fill-rule="nonzero"/><path fill="#5d2808" d="M 335.914062 411.492188 C 335.628906 411.484375 335.351562 411.484375 335.066406 411.484375 C 232.027344 411.484375 150.066406 501.125 162.851562 606.738281 C 172.480469 686.269531 237.886719 749.964844 317.628906 757.699219 C 323.488281 758.269531 329.292969 758.546875 335.011719 758.546875 C 365.480469 758.554688 381.050781 722.3125 360.9375 699.429688 C 334.109375 668.914062 317.839844 628.875 317.839844 585.015625 C 317.839844 541.109375 334.148438 501.039062 361.019531 470.507812 C 380.894531 447.929688 365.976562 411.632812 335.914062 411.492188 " fill-opacity="1" fill-rule="nonzero"/><g clip-path="url(#e76b146941)"><path fill="#5d2808" d="M 899.011719 639.414062 C 868.964844 639.414062 844.613281 615.058594 844.613281 585.015625 C 844.613281 554.96875 868.964844 530.617188 899.011719 530.617188 C 929.054688 530.617188 953.417969 554.96875 953.417969 585.015625 C 953.417969 615.058594 929.054688 639.414062 899.011719 639.414062 Z M 804.550781 788.269531 C 789.679688 788.269531 777.617188 776.210938 777.617188 761.332031 C 777.617188 746.460938 789.679688 734.40625 804.550781 734.40625 C 819.433594 734.40625 831.488281 746.460938 831.488281 761.332031 C 831.488281 776.210938 819.433594 788.269531 804.550781 788.269531 Z M 719.574219 773.515625 C 715.125 782.234375 706.148438 788.269531 695.683594 788.269531 C 680.8125 788.269531 668.746094 776.210938 668.746094 761.332031 C 668.746094 746.460938 680.8125 734.40625 695.683594 734.40625 C 706.148438 734.40625 715.125 740.429688 719.574219 749.144531 C 719.003906 753.136719 718.621094 757.183594 718.621094 761.332031 C 718.621094 765.480469 719.003906 769.527344 719.574219 773.515625 Z M 601.226562 639.414062 C 571.179688 639.414062 546.828125 615.058594 546.828125 585.015625 C 546.828125 554.96875 571.179688 530.617188 601.226562 530.617188 C 631.269531 530.617188 655.632812 554.96875 655.632812 585.015625 C 655.632812 615.058594 631.269531 639.414062 601.226562 639.414062 Z M 899.011719 411.4375 C 835.683594 411.4375 780.429688 445.476562 750.117188 496.140625 C 719.804688 445.476562 664.5625 411.4375 601.226562 411.4375 C 505.367188 411.4375 427.65625 489.148438 427.65625 585.015625 C 427.65625 676.84375 499.023438 751.824219 589.289062 757.984375 C 556.042969 803.074219 535.835938 857.335938 535.835938 904.035156 C 535.835938 1005.914062 631.777344 1088.5 750.117188 1088.5 C 868.46875 1088.5 964.398438 1005.914062 964.398438 904.035156 C 964.398438 857.335938 944.191406 803.074219 910.957031 757.984375 C 1001.222656 751.824219 1072.585938 676.84375 1072.585938 585.015625 C 1072.585938 489.148438 994.875 411.4375 899.011719 411.4375 " fill-opacity="1" fill-rule="nonzero"/></g><g clip-path="url(#0f62d8b524)"><path fill="#000000" d="M 891.894531 885.53125 C 891.324219 884.867188 889.40625 882.792969 886.121094 879.328125 C 884.050781 877.121094 884.050781 873.789062 886.121094 872.003906 C 887.710938 870.65625 891.148438 870.746094 893.238281 871.605469 C 906.527344 877.121094 913.972656 887.054688 915.582031 901.417969 C 916.332031 907.992188 918.246094 921.300781 914.039062 926.042969 C 911.859375 928.492188 907.824219 927.324219 907.273438 924.101562 C 906.371094 918.628906 906.570312 910.089844 903.75 905.523438 C 902.714844 903.867188 900.53125 903.359375 898.878906 904.398438 C 896.214844 906.050781 893.902344 908.5 891.960938 911.722656 C 883.191406 926.242188 876.074219 945.066406 866.996094 962.234375 C 853.84375 987.078125 828.703125 1012.808594 800.699219 1018.765625 C 770.667969 1025.144531 736.425781 1027.417969 707.5625 1018.347656 C 687.820312 1012.148438 670.832031 997.140625 658.121094 980.128906 C 646.464844 964.527344 638.578125 952.941406 634.457031 945.332031 C 628.839844 934.957031 623.460938 926.023438 618.304688 918.496094 C 614.847656 913.445312 608.148438 907 602.355469 912.5625 C 601.804688 913.089844 601.472656 913.839844 601.449219 914.613281 C 601.296875 921.101562 602.484375 926.972656 598.367188 930.699219 C 597.859375 931.140625 597.175781 931.316406 596.515625 931.183594 C 581.554688 927.875 588.164062 904.550781 593.539062 896.101562 C 598.742188 887.933594 608.941406 872.597656 620.113281 876.195312 C 621.941406 876.792969 622.691406 878.953125 621.65625 880.566406 L 614.738281 891.136719 C 614.1875 891.972656 614.449219 893.078125 615.308594 893.585938 C 634.480469 905.015625 650.761719 913.113281 671.738281 915.847656 C 689.5625 918.1875 706.835938 923.175781 724.417969 923.660156 C 781.664062 925.273438 841.96875 916.710938 891.457031 888.132812 C 892.378906 887.605469 892.601562 886.347656 891.894531 885.53125 Z M 891.894531 885.53125 " fill-opacity="1" fill-rule="nonzero"/></g><path fill="#ffffff" d="M 644.0625 925.25 C 643.863281 924.917969 644.171875 924.5 644.546875 924.609375 C 688.175781 936.195312 734.335938 943.210938 779.855469 938.445312 C 805.214844 935.796875 829.34375 928.734375 855.121094 920.460938 C 859.59375 919.027344 863.648438 919.269531 867.242188 921.191406 C 867.902344 921.566406 868.078125 922.449219 867.59375 923.019531 C 866.335938 924.585938 860.277344 933.613281 849.414062 950.117188 C 844.746094 957.222656 840.335938 962.167969 836.21875 964.925781 C 830.511719 968.742188 824.078125 971.609375 816.894531 973.507812 C 782.34375 982.644531 747.070312 984.011719 711.089844 977.636719 C 678.964844 971.921875 660.082031 952.257812 644.0625 925.25 Z M 644.0625 925.25 " fill-opacity="1" fill-rule="nonzero"/><g clip-path="url(#161788c5e0)"><path fill="#ffffff" d="M 640.191406 568.460938 C 640.191406 569.210938 640.15625 569.960938 640.082031 570.707031 C 640.007812 571.457031 639.898438 572.199219 639.753906 572.933594 C 639.605469 573.671875 639.425781 574.398438 639.207031 575.117188 C 638.988281 575.835938 638.734375 576.542969 638.449219 577.238281 C 638.160156 577.929688 637.839844 578.609375 637.484375 579.273438 C 637.132812 579.933594 636.746094 580.578125 636.328125 581.203125 C 635.910156 581.828125 635.464844 582.429688 634.988281 583.011719 C 634.511719 583.589844 634.007812 584.144531 633.476562 584.675781 C 632.945312 585.207031 632.390625 585.710938 631.808594 586.1875 C 631.226562 586.664062 630.625 587.113281 630 587.53125 C 629.375 587.945312 628.734375 588.332031 628.070312 588.6875 C 627.40625 589.039062 626.730469 589.363281 626.035156 589.648438 C 625.34375 589.9375 624.636719 590.1875 623.917969 590.40625 C 623.199219 590.625 622.46875 590.808594 621.734375 590.953125 C 620.996094 591.101562 620.253906 591.210938 619.507812 591.285156 C 618.761719 591.359375 618.011719 591.394531 617.257812 591.394531 C 616.507812 591.394531 615.757812 591.359375 615.011719 591.285156 C 614.265625 591.210938 613.523438 591.101562 612.785156 590.953125 C 612.050781 590.808594 611.320312 590.625 610.601562 590.40625 C 609.882812 590.1875 609.175781 589.9375 608.484375 589.648438 C 607.789062 589.363281 607.113281 589.039062 606.449219 588.6875 C 605.785156 588.332031 605.144531 587.945312 604.519531 587.53125 C 603.894531 587.113281 603.292969 586.664062 602.710938 586.1875 C 602.128906 585.710938 601.574219 585.207031 601.042969 584.675781 C 600.511719 584.144531 600.007812 583.589844 599.53125 583.011719 C 599.054688 582.429688 598.609375 581.828125 598.191406 581.203125 C 597.773438 580.578125 597.386719 579.933594 597.035156 579.273438 C 596.679688 578.609375 596.359375 577.929688 596.070312 577.238281 C 595.785156 576.542969 595.53125 575.835938 595.3125 575.117188 C 595.09375 574.398438 594.914062 573.671875 594.765625 572.933594 C 594.621094 572.199219 594.511719 571.457031 594.4375 570.707031 C 594.363281 569.960938 594.328125 569.210938 594.324219 568.460938 C 594.328125 567.710938 594.363281 566.960938 594.4375 566.214844 C 594.511719 565.464844 594.621094 564.722656 594.765625 563.988281 C 594.914062 563.25 595.09375 562.523438 595.3125 561.804688 C 595.53125 561.085938 595.785156 560.378906 596.070312 559.683594 C 596.359375 558.992188 596.679688 558.3125 597.035156 557.648438 C 597.386719 556.988281 597.773438 556.34375 598.191406 555.71875 C 598.609375 555.09375 599.054688 554.492188 599.53125 553.910156 C 600.007812 553.332031 600.511719 552.777344 601.042969 552.246094 C 601.574219 551.714844 602.128906 551.210938 602.710938 550.734375 C 603.292969 550.257812 603.894531 549.808594 604.519531 549.390625 C 605.144531 548.976562 605.785156 548.589844 606.449219 548.234375 C 607.113281 547.882812 607.789062 547.5625 608.484375 547.273438 C 609.175781 546.984375 609.882812 546.734375 610.601562 546.515625 C 611.320312 546.296875 612.050781 546.113281 612.785156 545.96875 C 613.523438 545.820312 614.265625 545.710938 615.011719 545.636719 C 615.757812 545.5625 616.507812 545.527344 617.257812 545.527344 C 618.011719 545.527344 618.761719 545.5625 619.507812 545.636719 C 620.253906 545.710938 620.996094 545.820312 621.734375 545.96875 C 622.46875 546.113281 623.199219 546.296875 623.917969 546.515625 C 624.636719 546.734375 625.34375 546.984375 626.035156 547.273438 C 626.730469 547.5625 627.40625 547.882812 628.070312 548.234375 C 628.734375 548.589844 629.375 548.976562 630 549.390625 C 630.625 549.808594 631.226562 550.257812 631.808594 550.734375 C 632.390625 551.210938 632.945312 551.714844 633.476562 552.246094 C 634.007812 552.777344 634.511719 553.332031 634.988281 553.910156 C 635.464844 554.492188 635.910156 555.09375 636.328125 555.71875 C 636.746094 556.34375 637.132812 556.988281 637.484375 557.648438 C 637.839844 558.3125 638.160156 558.992188 638.449219 559.683594 C 638.734375 560.378906 638.988281 561.085938 639.207031 561.804688 C 639.425781 562.523438 639.605469 563.25 639.753906 563.988281 C 639.898438 564.722656 640.007812 565.464844 640.082031 566.214844 C 640.15625 566.960938 640.191406 567.710938 640.191406 568.460938 Z M 640.191406 568.460938 " fill-opacity="1" fill-rule="nonzero"/></g><g clip-path="url(#f4171611b1)"><path fill="#ffffff" d="M 941.777344 568.460938 C 941.777344 569.210938 941.738281 569.960938 941.664062 570.707031 C 941.589844 571.457031 941.480469 572.199219 941.335938 572.933594 C 941.1875 573.671875 941.007812 574.398438 940.789062 575.117188 C 940.570312 575.835938 940.316406 576.542969 940.03125 577.238281 C 939.742188 577.929688 939.421875 578.609375 939.066406 579.273438 C 938.714844 579.933594 938.328125 580.578125 937.910156 581.203125 C 937.492188 581.828125 937.046875 582.429688 936.570312 583.011719 C 936.09375 583.589844 935.589844 584.144531 935.058594 584.675781 C 934.527344 585.207031 933.972656 585.710938 933.390625 586.1875 C 932.808594 586.664062 932.207031 587.113281 931.582031 587.53125 C 930.957031 587.945312 930.316406 588.332031 929.652344 588.6875 C 928.992188 589.039062 928.3125 589.363281 927.617188 589.648438 C 926.925781 589.9375 926.21875 590.1875 925.5 590.40625 C 924.78125 590.625 924.054688 590.808594 923.316406 590.953125 C 922.578125 591.101562 921.835938 591.210938 921.089844 591.285156 C 920.34375 591.359375 919.59375 591.394531 918.84375 591.394531 C 918.089844 591.394531 917.34375 591.359375 916.59375 591.285156 C 915.847656 591.210938 915.105469 591.101562 914.367188 590.953125 C 913.632812 590.808594 912.902344 590.625 912.183594 590.40625 C 911.464844 590.1875 910.761719 589.9375 910.066406 589.648438 C 909.371094 589.363281 908.695312 589.039062 908.03125 588.6875 C 907.367188 588.332031 906.726562 587.945312 906.101562 587.53125 C 905.476562 587.113281 904.875 586.664062 904.292969 586.1875 C 903.710938 585.710938 903.15625 585.207031 902.625 584.675781 C 902.09375 584.144531 901.589844 583.589844 901.113281 583.011719 C 900.636719 582.429688 900.191406 581.828125 899.773438 581.203125 C 899.355469 580.578125 898.96875 579.933594 898.617188 579.273438 C 898.261719 578.609375 897.941406 577.929688 897.65625 577.238281 C 897.367188 576.542969 897.113281 575.835938 896.894531 575.117188 C 896.679688 574.398438 896.496094 573.671875 896.347656 572.933594 C 896.203125 572.199219 896.09375 571.457031 896.019531 570.707031 C 895.945312 569.960938 895.910156 569.210938 895.910156 568.460938 C 895.910156 567.710938 895.945312 566.960938 896.019531 566.214844 C 896.09375 565.464844 896.203125 564.722656 896.347656 563.988281 C 896.496094 563.25 896.679688 562.523438 896.894531 561.804688 C 897.113281 561.085938 897.367188 560.378906 897.65625 559.683594 C 897.941406 558.992188 898.261719 558.3125 898.617188 557.648438 C 898.96875 556.988281 899.355469 556.34375 899.773438 555.71875 C 900.191406 555.09375 900.636719 554.492188 901.113281 553.910156 C 901.589844 553.332031 902.09375 552.777344 902.625 552.246094 C 903.15625 551.714844 903.710938 551.210938 904.292969 550.734375 C 904.875 550.257812 905.476562 549.808594 906.101562 549.390625 C 906.726562 548.976562 907.367188 548.589844 908.03125 548.234375 C 908.695312 547.882812 909.371094 547.5625 910.066406 547.273438 C 910.761719 546.984375 911.464844 546.734375 912.183594 546.515625 C 912.902344 546.296875 913.632812 546.113281 914.367188 545.96875 C 915.105469 545.820312 915.847656 545.710938 916.59375 545.636719 C 917.34375 545.5625 918.089844 545.527344 918.84375 545.527344 C 919.59375 545.527344 920.34375 545.5625 921.089844 545.636719 C 921.835938 545.710938 922.578125 545.820312 923.316406 545.96875 C 924.054688 546.113281 924.78125 546.296875 925.5 546.515625 C 926.21875 546.734375 926.925781 546.984375 927.617188 547.273438 C 928.3125 547.5625 928.992188 547.882812 929.652344 548.234375 C 930.316406 548.589844 930.957031 548.976562 931.582031 549.390625 C 932.207031 549.808594 932.808594 550.257812 933.390625 550.734375 C 933.972656 551.210938 934.527344 551.714844 935.058594 552.246094 C 935.589844 552.777344 936.09375 553.332031 936.570312 553.910156 C 937.046875 554.492188 937.492188 555.09375 937.910156 555.71875 C 938.328125 556.34375 938.714844 556.988281 939.066406 557.648438 C 939.421875 558.3125 939.742188 558.992188 940.03125 559.683594 C 940.316406 560.378906 940.570312 561.085938 940.789062 561.804688 C 941.007812 562.523438 941.1875 563.25 941.335938 563.988281 C 941.480469 564.722656 941.589844 565.464844 941.664062 566.214844 C 941.738281 566.960938 941.777344 567.710938 941.777344 568.460938 Z M 941.777344 568.460938 " fill-opacity="1" fill-rule="nonzero"/></g></svg>